<svg width="57" height="47" viewBox="0 0 57 47" fill="none" xmlns="http://www.w3.org/2000/svg">
<path d="M25.709 2.244L23.735 0.396C23.171 -0.132 22.325 -0.132 21.761 0.396L9.353 12.012L4.371 7.348C3.807 6.82 2.961 6.82 2.397 7.348L0.423 9.196C-0.141 9.724 -0.141 10.516 0.423 11.044L7.379 17.556C7.943 18.084 8.695 18.348 9.353 18.348C10.105 18.348 10.763 18.084 11.327 17.556L25.709 4.092C26.179 3.652 26.179 2.772 25.709 2.244Z" fill="white"/>
<path d="M54.285 14.828H29.845C28.811 14.828 27.965 14.036 27.965 13.068V9.548C27.965 8.58 28.811 7.788 29.845 7.788H54.285C55.319 7.788 56.165 8.58 56.165 9.548V13.068C56.165 14.036 55.319 14.828 54.285 14.828Z" fill="white"/>
<path d="M54.285 30.668H24.205C23.171 30.668 22.325 29.876 22.325 28.908V25.388C22.325 24.42 23.171 23.628 24.205 23.628H54.285C55.319 23.628 56.165 24.42 56.165 25.388V28.908C56.165 29.876 55.319 30.668 54.285 30.668Z" fill="white"/>
<path d="M12.925 30.668H9.16497C8.13097 30.668 7.28497 29.876 7.28497 28.908V25.388C7.28497 24.42 8.13097 23.628 9.16497 23.628H12.925C13.959 23.628 14.805 24.42 14.805 25.388V28.908C14.805 29.876 13.959 30.668 12.925 30.668Z" fill="white"/>
<path d="M12.925 46.508H9.16497C8.13097 46.508 7.28497 45.716 7.28497 44.748V41.228C7.28497 40.26 8.13097 39.468 9.16497 39.468H12.925C13.959 39.468 14.805 40.26 14.805 41.228V44.748C14.805 45.716 13.959 46.508 12.925 46.508Z" fill="white"/>
<path d="M54.285 46.508H24.205C23.171 46.508 22.325 45.716 22.325 44.748V41.228C22.325 40.26 23.171 39.468 24.205 39.468H54.285C55.319 39.468 56.165 40.26 56.165 41.228V44.748C56.165 45.716 55.319 46.508 54.285 46.508Z" fill="white"/>
</svg>
